<?xml version="1.0" encoding="utf-8"?>
<!-- Generator: Adobe Illustrator 15.1.0, SVG Export Plug-In . SVG Version: 6.00 Build 0)  -->
<!DOCTYPE svg PUBLIC "-//W3C//DTD SVG 1.1//EN" "http://www.w3.org/Graphics/SVG/1.1/DTD/svg11.dtd">
<svg version="1.1" id="external-link" xmlns="http://www.w3.org/2000/svg" xmlns:xlink="http://www.w3.org/1999/xlink" x="0px"
	 y="0px" width="13.271px" height="13.087px" viewBox="0 0 13.271 13.087" enable-background="new 0 0 13.271 13.087"
	 xml:space="preserve">
<g>
	<path fill="#6E7C8E" d="M13.087,2.455v8.179c0,0.676-0.24,1.252-0.722,1.734c-0.479,0.479-1.057,0.719-1.732,0.719H2.455
		c-0.677,0-1.254-0.24-1.735-0.719C0.24,11.886,0,11.31,0,10.634V2.455C0,1.778,0.24,1.2,0.719,0.721C1.2,0.24,1.778,0,2.455,0
		h8.178c0.676,0,1.254,0.24,1.732,0.721C12.847,1.2,13.087,1.778,13.087,2.455z M10.904,6.817V2.727c0-0.147-0.054-0.274-0.16-0.382
		c-0.108-0.108-0.236-0.162-0.384-0.162H6.271c-0.239,0-0.406,0.11-0.503,0.332C5.671,2.747,5.71,2.946,5.887,3.11l1.226,1.227
		L2.564,8.886C2.457,8.994,2.402,9.123,2.402,9.271c0,0.146,0.054,0.275,0.162,0.383l0.869,0.869
		c0.108,0.107,0.236,0.162,0.384,0.162c0.147,0,0.276-0.055,0.384-0.162L8.75,5.973L9.977,7.2c0.103,0.108,0.23,0.162,0.384,0.162
		c0.067,0,0.14-0.013,0.213-0.043C10.795,7.224,10.904,7.056,10.904,6.817z"/>
</g>
</svg>
