<svg version="1.1" id="audio-description" xmlns="http://www.w3.org/2000/svg" xmlns:xlink="http://www.w3.org/1999/xlink" x="0px"
	 y="0px" width="20px" height="12.417px" viewBox="0 0 20 12.417" enable-background="new 0 0 20 12.417" xml:space="preserve">
<rect x="2.168" fill="none" width="19" height="13"/>
<g enable-background="new    ">
	<path fill="#FFFFFF" d="M8.57,3.743l0.007,5.063c0,0.063-0.021,0.116-0.064,0.161S8.418,9.034,8.356,9.034H6.91
		c-0.063,0-0.115-0.022-0.158-0.067S6.688,8.869,6.688,8.805V8.39H4.74L4.372,8.933C4.327,9,4.265,9.034,4.184,9.034H2.396
		c-0.094,0-0.162-0.041-0.204-0.121S2.157,8.754,2.215,8.678l3.723-5.069c0.04-0.063,0.101-0.094,0.181-0.094h2.224
		c0.062,0,0.116,0.022,0.161,0.067C8.548,3.627,8.57,3.68,8.57,3.743z M5.543,6.93h1.145L6.682,5.156L5.543,6.93z M13.265,4.246
		c0.563,0.486,0.844,1.16,0.844,2.022c0,0.861-0.28,1.537-0.841,2.028s-1.285,0.737-2.173,0.737H9.287
		c-0.063,0-0.116-0.022-0.161-0.067S9.059,8.869,9.059,8.805V3.743c0-0.063,0.022-0.115,0.067-0.16s0.098-0.067,0.161-0.067h1.795
		C11.975,3.515,12.702,3.759,13.265,4.246z M12.414,6.268c0-0.389-0.113-0.701-0.338-0.938c-0.227-0.237-0.553-0.355-0.981-0.355
		h-0.361v2.599h0.349c0.406,0,0.729-0.128,0.971-0.382C12.293,6.937,12.414,6.629,12.414,6.268z M15.152,6.274
		c0,0.05,0,0.114-0.003,0.194c-0.003,0.081-0.021,0.24-0.054,0.479c-0.033,0.238-0.082,0.466-0.144,0.683
		c-0.063,0.217-0.162,0.458-0.298,0.724c-0.137,0.266-0.301,0.494-0.492,0.686H13.82c0.17-0.2,0.318-0.434,0.445-0.699
		s0.22-0.516,0.277-0.75c0.059-0.234,0.105-0.453,0.141-0.656c0.036-0.203,0.057-0.365,0.061-0.485l0.007-0.181
		c0-0.036-0.001-0.086-0.003-0.151c-0.002-0.064-0.02-0.198-0.051-0.401s-0.076-0.407-0.134-0.613
		c-0.058-0.205-0.149-0.454-0.274-0.746s-0.272-0.57-0.441-0.834h0.287c0.184,0.21,0.344,0.449,0.482,0.717s0.24,0.517,0.305,0.746
		c0.064,0.23,0.115,0.444,0.154,0.644c0.037,0.198,0.061,0.355,0.07,0.472L15.152,6.274z M16.385,6.274
		c0,0.05-0.001,0.114-0.003,0.194c-0.003,0.081-0.021,0.24-0.054,0.479c-0.033,0.238-0.082,0.466-0.145,0.683
		s-0.162,0.458-0.301,0.724s-0.304,0.494-0.496,0.686h-0.341c0.169-0.2,0.317-0.434,0.445-0.699c0.127-0.266,0.22-0.516,0.278-0.75
		c0.057-0.234,0.104-0.453,0.141-0.656c0.035-0.203,0.055-0.365,0.06-0.485l0.007-0.181c0-0.036-0.002-0.086-0.004-0.151
		c-0.002-0.064-0.019-0.198-0.05-0.401s-0.075-0.407-0.13-0.613c-0.057-0.205-0.146-0.454-0.271-0.746s-0.273-0.57-0.442-0.834
		h0.288c0.184,0.21,0.344,0.449,0.482,0.717s0.24,0.517,0.305,0.746c0.064,0.23,0.115,0.444,0.154,0.644
		c0.037,0.198,0.061,0.355,0.07,0.472L16.385,6.274z M17.598,6.274c0,0.05-0.002,0.114-0.004,0.194
		c-0.002,0.081-0.02,0.24-0.054,0.479c-0.033,0.238-0.081,0.466-0.144,0.683s-0.162,0.458-0.299,0.724
		c-0.136,0.266-0.3,0.494-0.492,0.686h-0.341c0.169-0.2,0.317-0.434,0.442-0.699s0.216-0.516,0.273-0.75
		c0.059-0.234,0.105-0.453,0.141-0.656c0.036-0.203,0.057-0.365,0.061-0.485l0.007-0.181c0-0.036-0.001-0.086-0.003-0.151
		c-0.002-0.064-0.02-0.198-0.051-0.401s-0.074-0.407-0.131-0.613c-0.055-0.205-0.146-0.454-0.271-0.746
		c-0.126-0.292-0.272-0.57-0.442-0.834h0.288c0.183,0.21,0.344,0.449,0.482,0.717c0.138,0.268,0.239,0.517,0.305,0.746
		c0.064,0.23,0.116,0.444,0.153,0.644c0.039,0.198,0.06,0.355,0.064,0.472L17.598,6.274z"/>
</g>
</svg>
