<svg version="1.1" id="bitbucket" xmlns="http://www.w3.org/2000/svg" xmlns:xlink="http://www.w3.org/1999/xlink" x="0px" y="0px"
	 width="40px" height="40px" viewBox="0 0 40 40" enable-background="new 0 0 40 40" xml:space="preserve">
<path fill="#FFFFFF" d="M24.962,21.084c-0.094,0.541-0.617,0.844-1.056,1.072c-1.578,0.793-3.418,0.93-5.148,0.742
	c-1.174-0.125-2.372-0.438-3.326-1.174c-0.447-0.346-0.447-0.935-0.531-1.434c-0.295-1.729-0.633-3.46-0.844-5.207
	c0.102-0.759,0.953-1.089,1.587-1.325c0.844-0.313,1.747-0.455,2.642-0.54c1.907-0.187,3.857-0.118,5.705,0.422
	c0.658,0.194,1.367,0.464,1.815,1.03c0.202,0.261,0.135,0.59,0.092,0.886C25.611,17.404,25.282,19.245,24.962,21.084z
	 M23.392,26.088c-1.511,0.838-3.343,0.93-5.005,0.635c-0.878-0.16-1.908-0.439-2.39-1.266c-0.211-0.811-0.346-1.639-0.48-2.465
	l0.051-0.137l0.152-0.074c2.515,1.662,6.034,1.662,8.558,0c0.396,0.117,0.102,0.6,0.093,0.887
	C24.134,24.494,24.27,25.607,23.392,26.088z M22.328,14.264c-1.578-0.252-3.199-0.261-4.777,0.017
	c-0.523,0.085-1.114,0.178-1.443,0.65c0.54,0.507,1.309,0.583,2,0.667c1.249,0.161,2.533,0.168,3.781,0.008
	c0.701-0.083,1.478-0.151,2-0.675C23.519,14.442,22.885,14.358,22.328,14.264z M19.256,18.012c-0.701,0.313-1.174,1.055-1.14,1.839
	c0.042,1.03,1.021,1.874,2.051,1.782c1.03-0.094,1.831-1.097,1.705-2.127C21.721,18.307,20.361,17.513,19.256,18.012z
	 M19.567,20.586c-0.675-0.296-0.675-1.367-0.017-1.671c0.565-0.347,1.385,0.109,1.385,0.768
	C21.028,20.392,20.167,20.949,19.567,20.586z"/>
</svg>
