<svg version="1.1" id="email" xmlns="http://www.w3.org/2000/svg" xmlns:xlink="http://www.w3.org/1999/xlink" x="0px" y="0px"
	 width="40px" height="40px" viewBox="0 0 40 40" enable-background="new 0 0 40 40" xml:space="preserve">
<path fill="#FFFFFF" d="M26.119,17.721c-1.316,0.911-2.642,1.823-3.949,2.742c-0.549,0.381-1.478,1.158-2.161,1.158H20h-0.008
	c-0.684,0-1.612-0.777-2.161-1.158c-1.308-0.919-2.634-1.831-3.941-2.742c-0.599-0.405-1.452-1.358-1.452-2.128
	c0-0.827,0.447-1.535,1.351-1.535h12.425c0.734,0,1.35,0.607,1.35,1.351C27.563,16.354,26.861,17.207,26.119,17.721z M27.563,24.59
	c0,0.744-0.607,1.352-1.35,1.352H13.788c-0.742,0-1.351-0.607-1.351-1.352v-6.701c0.254,0.279,0.541,0.523,0.854,0.735
	c1.4,0.953,2.818,1.906,4.194,2.911c0.708,0.523,1.587,1.166,2.507,1.166H20h0.009c0.92,0,1.798-0.643,2.507-1.166
	c1.375-0.996,2.793-1.958,4.203-2.911c0.304-0.212,0.59-0.456,0.844-0.735V24.59z"/>
</svg>
