<svg version="1.1" id="github" xmlns="http://www.w3.org/2000/svg" xmlns:xlink="http://www.w3.org/1999/xlink" x="0px" y="0px"
	 width="40px" height="40px" viewBox="0 0 40 40" enable-background="new 0 0 40 40" xml:space="preserve">
<path fill="#FFFFFF" d="M26.482,20.16c0,2.86-1.857,5.292-4.432,6.151c-0.329,0.061-0.447-0.143-0.447-0.311
	c0-0.212,0.008-0.912,0.008-1.782c0-0.607-0.202-0.995-0.438-1.198c1.443-0.16,2.963-0.709,2.963-3.198
	c0-0.71-0.253-1.283-0.667-1.738c0.067-0.17,0.287-0.828-0.067-1.723c-0.54-0.169-1.781,0.667-1.781,0.667
	c-0.515-0.143-1.071-0.22-1.62-0.22s-1.105,0.077-1.621,0.22c0,0-1.24-0.836-1.78-0.667c-0.354,0.895-0.135,1.553-0.067,1.723
	c-0.414,0.455-0.667,1.028-0.667,1.738c0,2.48,1.511,3.038,2.954,3.198c-0.186,0.17-0.354,0.456-0.414,0.87
	c-0.371,0.168-1.316,0.455-1.882-0.54c-0.354-0.617-0.996-0.667-0.996-0.667c-0.633-0.009-0.042,0.396-0.042,0.396
	c0.422,0.194,0.718,0.946,0.718,0.946c0.38,1.156,2.186,0.769,2.186,0.769c0,0.54,0.008,1.046,0.008,1.207
	c0,0.168-0.118,0.371-0.447,0.311c-2.574-0.859-4.431-3.291-4.431-6.151c0-3.579,2.903-6.482,6.482-6.482
	S26.482,16.581,26.482,20.16z M15.915,22.887c-0.051-0.018-0.094-0.009-0.109,0.016c-0.018,0.034,0.008,0.076,0.059,0.103
	c0.042,0.024,0.093,0.016,0.109-0.018C15.991,22.953,15.965,22.911,15.915,22.887z M16.219,23.139
	c-0.043-0.042-0.102-0.06-0.136-0.024c-0.033,0.024-0.025,0.083,0.018,0.135c0.042,0.042,0.102,0.06,0.135,0.024
	C16.27,23.249,16.261,23.19,16.219,23.139z M16.488,23.493c-0.033-0.06-0.102-0.084-0.143-0.051c-0.043,0.026-0.043,0.094,0,0.152
	c0.041,0.06,0.109,0.084,0.143,0.06C16.531,23.62,16.531,23.552,16.488,23.493z M16.81,23.849c-0.06-0.06-0.135-0.067-0.169-0.026
	c-0.042,0.033-0.025,0.11,0.034,0.16c0.059,0.06,0.135,0.068,0.168,0.026C16.877,23.974,16.86,23.899,16.81,23.849z M17.215,24.085
	c-0.067-0.018-0.144,0.007-0.161,0.059c-0.017,0.051,0.034,0.11,0.109,0.127c0.068,0.024,0.145,0,0.161-0.052
	C17.342,24.169,17.29,24.109,17.215,24.085z M17.712,24.169c-0.075,0-0.134,0.043-0.134,0.093c0,0.06,0.059,0.102,0.143,0.093
	c0.076,0,0.135-0.042,0.135-0.093C17.855,24.203,17.789,24.16,17.712,24.169z M18.193,24.101c-0.075,0.018-0.127,0.068-0.118,0.127
	c0.009,0.051,0.076,0.085,0.152,0.067c0.076-0.017,0.127-0.067,0.118-0.118C18.337,24.127,18.27,24.092,18.193,24.101z"/>
</svg>
