<svg version="1.1" id="linkedin" xmlns="http://www.w3.org/2000/svg" xmlns:xlink="http://www.w3.org/1999/xlink" x="0px" y="0px"
	 width="40px" height="40px" viewBox="0 0 40 40" enable-background="new 0 0 40 40" xml:space="preserve">
<path fill="#FFFFFF" d="M15.07,16.691h-0.018c-0.936,0-1.535-0.641-1.535-1.443c0-0.818,0.625-1.443,1.57-1.443
	c0.953,0,1.543,0.625,1.553,1.443C16.648,16.051,16.041,16.691,15.07,16.691z M16.463,26.195h-2.785v-8.364h2.785V26.195z
	 M26.482,26.195h-2.777v-4.474c0-1.122-0.406-1.89-1.41-1.89c-0.768,0-1.225,0.514-1.426,1.013
	c-0.068,0.186-0.094,0.431-0.094,0.684v4.667H18c0.033-7.579,0-8.364,0-8.364h2.775v1.216H20.76c0.363-0.575,1.021-1.41,2.523-1.41
	c1.832,0,3.199,1.198,3.199,3.765V26.195z"/>
</svg>
