<svg version="1.1" id="phone" xmlns="http://www.w3.org/2000/svg" xmlns:xlink="http://www.w3.org/1999/xlink" x="0px" y="0px"
	 width="40px" height="40px" viewBox="0 0 40 40" enable-background="new 0 0 40 40" xml:space="preserve">
<path fill="#FFFFFF" d="M25.681,24.617c-0.177,0.412-0.649,0.684-1.03,0.895c-0.497,0.27-1.004,0.43-1.569,0.43
	c-0.784,0-1.493-0.32-2.212-0.582c-0.514-0.186-1.012-0.414-1.477-0.701c-1.435-0.887-3.164-2.615-4.051-4.05
	c-0.287-0.464-0.516-0.963-0.701-1.479c-0.262-0.717-0.582-1.426-0.582-2.211c0-0.564,0.16-1.071,0.431-1.57
	c0.211-0.379,0.481-0.851,0.895-1.028c0.278-0.127,0.869-0.262,1.173-0.262c0.06,0,0.119,0,0.178,0.025
	c0.178,0.06,0.363,0.473,0.447,0.642c0.27,0.48,0.531,0.971,0.811,1.442c0.135,0.22,0.388,0.49,0.388,0.751
	c0,0.516-1.527,1.267-1.527,1.723c0,0.228,0.211,0.523,0.329,0.727c0.853,1.535,1.916,2.599,3.452,3.451
	c0.202,0.119,0.497,0.33,0.726,0.33c0.456,0,1.207-1.527,1.722-1.527c0.262,0,0.532,0.252,0.751,0.389
	c0.473,0.277,0.963,0.539,1.443,0.809c0.17,0.086,0.582,0.271,0.642,0.447c0.024,0.061,0.024,0.119,0.024,0.178
	C25.941,23.748,25.807,24.338,25.681,24.617z"/>
</svg>
