<svg version="1.1" id="twitter" xmlns="http://www.w3.org/2000/svg" xmlns:xlink="http://www.w3.org/1999/xlink" x="0px" y="0px"
	 width="40px" height="40px" viewBox="0 0 40 40" enable-background="new 0 0 40 40" xml:space="preserve">
<path fill="#FFFFFF" d="M25.283,17.291c0.008,0.118,0.008,0.236,0.008,0.354c0,3.603-2.742,7.757-7.755,7.757
	c-1.545,0-2.98-0.449-4.187-1.225c0.219,0.025,0.43,0.033,0.658,0.033c1.274,0,2.447-0.43,3.385-1.164
	c-1.199-0.025-2.203-0.811-2.549-1.891c0.168,0.025,0.338,0.041,0.515,0.041c0.245,0,0.489-0.033,0.718-0.092
	c-1.25-0.253-2.187-1.35-2.187-2.675c0-0.009,0-0.025,0-0.034c0.363,0.202,0.784,0.329,1.232,0.347
	c-0.734-0.49-1.216-1.325-1.216-2.271c0-0.507,0.136-0.971,0.372-1.376c1.342,1.654,3.358,2.734,5.62,2.853
	c-0.041-0.202-0.066-0.413-0.066-0.624c0-1.502,1.215-2.727,2.725-2.727c0.785,0,1.494,0.33,1.992,0.861
	c0.617-0.118,1.207-0.347,1.73-0.658c-0.203,0.632-0.633,1.164-1.199,1.502c0.549-0.059,1.082-0.211,1.57-0.422
	C26.279,16.421,25.814,16.903,25.283,17.291z"/>
</svg>
