<svg version="1.1" id="whatsapp" xmlns="http://www.w3.org/2000/svg" xmlns:xlink="http://www.w3.org/1999/xlink" x="0px" y="0px"
	 width="40px" height="40px" viewBox="0 0 40 40" enable-background="new 0 0 40 40" xml:space="preserve">
<path fill="#FFFFFF" d="M26.481,19.832c0,3.51-2.852,6.364-6.363,6.364c-1.072,0-2.135-0.271-3.08-0.793l-3.52,1.131l1.147-3.42
	c-0.599-0.986-0.911-2.125-0.911-3.282c0-3.512,2.852-6.364,6.363-6.364S26.481,16.32,26.481,19.832z M25.419,19.832
	c0-2.922-2.381-5.301-5.301-5.301s-5.301,2.379-5.301,5.301c0,1.113,0.355,2.202,1.014,3.106l-0.668,1.965l2.043-0.648
	c0.861,0.566,1.883,0.879,2.912,0.879C23.038,25.133,25.419,22.752,25.419,19.832z M23.409,21.477
	c0.018,0.043,0.018,0.094,0.018,0.127c0,0.211-0.067,0.447-0.143,0.643c-0.195,0.473-0.98,0.775-1.461,0.775
	c-0.405,0-1.24-0.354-1.604-0.523c-1.207-0.549-1.959-1.486-2.684-2.557c-0.321-0.473-0.608-1.055-0.6-1.638v-0.068
	c0.018-0.556,0.219-0.953,0.624-1.332c0.127-0.118,0.263-0.187,0.439-0.187c0.101,0,0.202,0.025,0.312,0.025
	c0.229,0,0.271,0.067,0.354,0.286c0.06,0.145,0.489,1.292,0.489,1.377c0,0.32-0.582,0.683-0.582,0.878
	c0,0.041,0.018,0.085,0.043,0.126c0.186,0.396,0.539,0.854,0.86,1.157c0.388,0.37,0.802,0.616,1.274,0.852
	c0.06,0.033,0.119,0.059,0.186,0.059c0.254,0,0.676-0.819,0.895-0.819C21.976,20.658,23.351,21.375,23.409,21.477z"/>
</svg>
